<mxfile host="Electron" agent="Mozilla/5.0 (Macintosh; Intel Mac OS X 10_15_7) AppleWebKit/537.36 (KHTML, like Gecko) draw.io/28.2.8 Chrome/140.0.7339.240 Electron/38.4.0 Safari/537.36" version="28.2.8">
  <diagram name="PÃ¡gina-1" id="XAsMJ1LM5eFohDihfwk2">
    <mxGraphModel dx="976" dy="755" grid="1" gridSize="10" guides="1" tooltips="1" connect="1" arrows="1" fold="1" page="1" pageScale="1" pageWidth="827" pageHeight="1169" math="0" shadow="0">
      <root>
        <mxCell id="0" />
        <mxCell id="1" parent="0" />
        <mxCell id="r2xLntPUADawQUwXZtfC-23" style="edgeStyle=orthogonalEdgeStyle;shape=connector;rounded=0;orthogonalLoop=1;jettySize=auto;html=1;entryX=0.5;entryY=0;entryDx=0;entryDy=0;strokeColor=default;align=center;verticalAlign=middle;fontFamily=Helvetica;fontSize=11;fontColor=default;labelBackgroundColor=default;endArrow=none;endFill=0;" edge="1" parent="1" source="r2xLntPUADawQUwXZtfC-1" target="r2xLntPUADawQUwXZtfC-22">
          <mxGeometry relative="1" as="geometry" />
        </mxCell>
        <mxCell id="r2xLntPUADawQUwXZtfC-27" style="edgeStyle=orthogonalEdgeStyle;shape=connector;rounded=0;orthogonalLoop=1;jettySize=auto;html=1;entryX=0;entryY=0.5;entryDx=0;entryDy=0;strokeColor=default;align=center;verticalAlign=middle;fontFamily=Helvetica;fontSize=11;fontColor=default;labelBackgroundColor=default;endArrow=none;endFill=0;" edge="1" parent="1" source="r2xLntPUADawQUwXZtfC-1" target="r2xLntPUADawQUwXZtfC-26">
          <mxGeometry relative="1" as="geometry" />
        </mxCell>
        <mxCell id="r2xLntPUADawQUwXZtfC-38" style="edgeStyle=orthogonalEdgeStyle;shape=connector;rounded=0;orthogonalLoop=1;jettySize=auto;html=1;strokeColor=default;align=center;verticalAlign=middle;fontFamily=Helvetica;fontSize=11;fontColor=default;labelBackgroundColor=default;endArrow=none;endFill=0;" edge="1" parent="1" source="r2xLntPUADawQUwXZtfC-1" target="r2xLntPUADawQUwXZtfC-37">
          <mxGeometry relative="1" as="geometry" />
        </mxCell>
        <mxCell id="r2xLntPUADawQUwXZtfC-1" value="SOCIO" style="whiteSpace=wrap;html=1;" vertex="1" parent="1">
          <mxGeometry x="340" y="90" width="120" height="60" as="geometry" />
        </mxCell>
        <mxCell id="r2xLntPUADawQUwXZtfC-9" style="edgeStyle=orthogonalEdgeStyle;shape=connector;rounded=0;orthogonalLoop=1;jettySize=auto;html=1;entryX=0.5;entryY=0;entryDx=0;entryDy=0;strokeColor=default;align=center;verticalAlign=middle;fontFamily=Helvetica;fontSize=11;fontColor=default;labelBackgroundColor=default;endArrow=none;endFill=0;" edge="1" parent="1" source="r2xLntPUADawQUwXZtfC-2" target="r2xLntPUADawQUwXZtfC-8">
          <mxGeometry relative="1" as="geometry" />
        </mxCell>
        <mxCell id="r2xLntPUADawQUwXZtfC-29" style="edgeStyle=orthogonalEdgeStyle;shape=connector;rounded=0;orthogonalLoop=1;jettySize=auto;html=1;strokeColor=default;align=center;verticalAlign=middle;fontFamily=Helvetica;fontSize=11;fontColor=default;labelBackgroundColor=default;endArrow=none;endFill=0;" edge="1" parent="1" source="r2xLntPUADawQUwXZtfC-2" target="r2xLntPUADawQUwXZtfC-28">
          <mxGeometry relative="1" as="geometry">
            <Array as="points">
              <mxPoint x="70" y="280" />
            </Array>
          </mxGeometry>
        </mxCell>
        <mxCell id="r2xLntPUADawQUwXZtfC-34" style="edgeStyle=orthogonalEdgeStyle;shape=connector;rounded=0;orthogonalLoop=1;jettySize=auto;html=1;strokeColor=default;align=center;verticalAlign=middle;fontFamily=Helvetica;fontSize=11;fontColor=default;labelBackgroundColor=default;endArrow=none;endFill=0;" edge="1" parent="1" source="r2xLntPUADawQUwXZtfC-2" target="r2xLntPUADawQUwXZtfC-33">
          <mxGeometry relative="1" as="geometry">
            <Array as="points">
              <mxPoint x="70" y="270" />
            </Array>
          </mxGeometry>
        </mxCell>
        <mxCell id="r2xLntPUADawQUwXZtfC-2" value="RESERVA" style="whiteSpace=wrap;html=1;" vertex="1" parent="1">
          <mxGeometry x="90" y="245" width="120" height="60" as="geometry" />
        </mxCell>
        <mxCell id="r2xLntPUADawQUwXZtfC-5" style="edgeStyle=orthogonalEdgeStyle;shape=connector;rounded=0;orthogonalLoop=1;jettySize=auto;html=1;strokeColor=default;align=center;verticalAlign=middle;fontFamily=Helvetica;fontSize=11;fontColor=default;labelBackgroundColor=default;endArrow=none;endFill=0;" edge="1" parent="1" source="r2xLntPUADawQUwXZtfC-3" target="r2xLntPUADawQUwXZtfC-2">
          <mxGeometry relative="1" as="geometry" />
        </mxCell>
        <mxCell id="r2xLntPUADawQUwXZtfC-3" value="realiza" style="rhombus;whiteSpace=wrap;html=1;" vertex="1" parent="1">
          <mxGeometry x="140" y="120" width="80" height="80" as="geometry" />
        </mxCell>
        <mxCell id="r2xLntPUADawQUwXZtfC-4" style="edgeStyle=orthogonalEdgeStyle;rounded=0;orthogonalLoop=1;jettySize=auto;html=1;endArrow=none;endFill=0;entryX=0.5;entryY=0;entryDx=0;entryDy=0;" edge="1" parent="1" source="r2xLntPUADawQUwXZtfC-1" target="r2xLntPUADawQUwXZtfC-3">
          <mxGeometry relative="1" as="geometry">
            <mxPoint x="180" y="120" as="targetPoint" />
          </mxGeometry>
        </mxCell>
        <mxCell id="r2xLntPUADawQUwXZtfC-6" value="1:N" style="text;html=1;whiteSpace=wrap;strokeColor=none;fillColor=none;align=center;verticalAlign=middle;rounded=0;fontFamily=Helvetica;fontSize=11;fontColor=default;labelBackgroundColor=default;" vertex="1" parent="1">
          <mxGeometry x="90" y="140" width="60" height="30" as="geometry" />
        </mxCell>
        <mxCell id="r2xLntPUADawQUwXZtfC-14" style="edgeStyle=orthogonalEdgeStyle;shape=connector;rounded=0;orthogonalLoop=1;jettySize=auto;html=1;entryX=0;entryY=0.5;entryDx=0;entryDy=0;strokeColor=default;align=center;verticalAlign=middle;fontFamily=Helvetica;fontSize=11;fontColor=default;labelBackgroundColor=default;endArrow=none;endFill=0;" edge="1" parent="1" source="r2xLntPUADawQUwXZtfC-7" target="r2xLntPUADawQUwXZtfC-13">
          <mxGeometry relative="1" as="geometry" />
        </mxCell>
        <mxCell id="r2xLntPUADawQUwXZtfC-19" style="edgeStyle=orthogonalEdgeStyle;shape=connector;rounded=0;orthogonalLoop=1;jettySize=auto;html=1;strokeColor=default;align=center;verticalAlign=middle;fontFamily=Helvetica;fontSize=11;fontColor=default;labelBackgroundColor=default;endArrow=none;endFill=0;" edge="1" parent="1" source="r2xLntPUADawQUwXZtfC-7" target="r2xLntPUADawQUwXZtfC-18">
          <mxGeometry relative="1" as="geometry" />
        </mxCell>
        <mxCell id="r2xLntPUADawQUwXZtfC-32" style="edgeStyle=orthogonalEdgeStyle;shape=connector;rounded=0;orthogonalLoop=1;jettySize=auto;html=1;entryX=0.5;entryY=0;entryDx=0;entryDy=0;strokeColor=default;align=center;verticalAlign=middle;fontFamily=Helvetica;fontSize=11;fontColor=default;labelBackgroundColor=default;endArrow=none;endFill=0;" edge="1" parent="1" source="r2xLntPUADawQUwXZtfC-7" target="r2xLntPUADawQUwXZtfC-30">
          <mxGeometry relative="1" as="geometry" />
        </mxCell>
        <mxCell id="r2xLntPUADawQUwXZtfC-36" style="edgeStyle=orthogonalEdgeStyle;shape=connector;rounded=0;orthogonalLoop=1;jettySize=auto;html=1;strokeColor=default;align=center;verticalAlign=middle;fontFamily=Helvetica;fontSize=11;fontColor=default;labelBackgroundColor=default;endArrow=none;endFill=0;" edge="1" parent="1" source="r2xLntPUADawQUwXZtfC-7" target="r2xLntPUADawQUwXZtfC-35">
          <mxGeometry relative="1" as="geometry" />
        </mxCell>
        <mxCell id="r2xLntPUADawQUwXZtfC-7" value="CLASE" style="whiteSpace=wrap;html=1;fontFamily=Helvetica;fontSize=11;fontColor=default;labelBackgroundColor=default;" vertex="1" parent="1">
          <mxGeometry x="300" y="380" width="120" height="60" as="geometry" />
        </mxCell>
        <mxCell id="r2xLntPUADawQUwXZtfC-10" style="edgeStyle=orthogonalEdgeStyle;shape=connector;rounded=0;orthogonalLoop=1;jettySize=auto;html=1;strokeColor=default;align=center;verticalAlign=middle;fontFamily=Helvetica;fontSize=11;fontColor=default;labelBackgroundColor=default;endArrow=none;endFill=0;" edge="1" parent="1" source="r2xLntPUADawQUwXZtfC-8" target="r2xLntPUADawQUwXZtfC-7">
          <mxGeometry relative="1" as="geometry" />
        </mxCell>
        <mxCell id="r2xLntPUADawQUwXZtfC-8" value="tiene" style="rhombus;whiteSpace=wrap;html=1;fontFamily=Helvetica;fontSize=11;fontColor=default;labelBackgroundColor=default;" vertex="1" parent="1">
          <mxGeometry x="110" y="370" width="80" height="80" as="geometry" />
        </mxCell>
        <mxCell id="r2xLntPUADawQUwXZtfC-11" value="1:N" style="text;html=1;whiteSpace=wrap;strokeColor=none;fillColor=none;align=center;verticalAlign=middle;rounded=0;fontFamily=Helvetica;fontSize=11;fontColor=default;labelBackgroundColor=default;" vertex="1" parent="1">
          <mxGeometry x="60" y="390" width="60" height="30" as="geometry" />
        </mxCell>
        <mxCell id="r2xLntPUADawQUwXZtfC-40" style="edgeStyle=orthogonalEdgeStyle;shape=connector;rounded=0;orthogonalLoop=1;jettySize=auto;html=1;strokeColor=default;align=center;verticalAlign=middle;fontFamily=Helvetica;fontSize=11;fontColor=default;labelBackgroundColor=default;endArrow=none;endFill=0;" edge="1" parent="1" source="r2xLntPUADawQUwXZtfC-12" target="r2xLntPUADawQUwXZtfC-39">
          <mxGeometry relative="1" as="geometry" />
        </mxCell>
        <mxCell id="r2xLntPUADawQUwXZtfC-12" value="INSTRUCTOR" style="whiteSpace=wrap;html=1;fontFamily=Helvetica;fontSize=11;fontColor=default;labelBackgroundColor=default;" vertex="1" parent="1">
          <mxGeometry x="680" y="360" width="120" height="60" as="geometry" />
        </mxCell>
        <mxCell id="r2xLntPUADawQUwXZtfC-15" style="edgeStyle=orthogonalEdgeStyle;shape=connector;rounded=0;orthogonalLoop=1;jettySize=auto;html=1;entryX=0;entryY=0.5;entryDx=0;entryDy=0;strokeColor=default;align=center;verticalAlign=middle;fontFamily=Helvetica;fontSize=11;fontColor=default;labelBackgroundColor=default;endArrow=none;endFill=0;" edge="1" parent="1" source="r2xLntPUADawQUwXZtfC-13" target="r2xLntPUADawQUwXZtfC-12">
          <mxGeometry relative="1" as="geometry" />
        </mxCell>
        <mxCell id="r2xLntPUADawQUwXZtfC-13" value="imparte" style="rhombus;whiteSpace=wrap;html=1;fontFamily=Helvetica;fontSize=11;fontColor=default;labelBackgroundColor=default;" vertex="1" parent="1">
          <mxGeometry x="490" y="360" width="80" height="80" as="geometry" />
        </mxCell>
        <mxCell id="r2xLntPUADawQUwXZtfC-16" value="1:N" style="text;html=1;whiteSpace=wrap;strokeColor=none;fillColor=none;align=center;verticalAlign=middle;rounded=0;fontFamily=Helvetica;fontSize=11;fontColor=default;labelBackgroundColor=default;" vertex="1" parent="1">
          <mxGeometry x="490" y="320" width="60" height="30" as="geometry" />
        </mxCell>
        <mxCell id="r2xLntPUADawQUwXZtfC-42" style="edgeStyle=orthogonalEdgeStyle;shape=connector;rounded=0;orthogonalLoop=1;jettySize=auto;html=1;entryX=0.5;entryY=0;entryDx=0;entryDy=0;strokeColor=default;align=center;verticalAlign=middle;fontFamily=Helvetica;fontSize=11;fontColor=default;labelBackgroundColor=default;endArrow=none;endFill=0;" edge="1" parent="1" source="r2xLntPUADawQUwXZtfC-17" target="r2xLntPUADawQUwXZtfC-41">
          <mxGeometry relative="1" as="geometry" />
        </mxCell>
        <mxCell id="r2xLntPUADawQUwXZtfC-17" value="SALA" style="whiteSpace=wrap;html=1;fontFamily=Helvetica;fontSize=11;fontColor=default;labelBackgroundColor=default;" vertex="1" parent="1">
          <mxGeometry x="600" y="480" width="120" height="60" as="geometry" />
        </mxCell>
        <mxCell id="r2xLntPUADawQUwXZtfC-20" style="edgeStyle=orthogonalEdgeStyle;shape=connector;rounded=0;orthogonalLoop=1;jettySize=auto;html=1;strokeColor=default;align=center;verticalAlign=middle;fontFamily=Helvetica;fontSize=11;fontColor=default;labelBackgroundColor=default;endArrow=none;endFill=0;" edge="1" parent="1" source="r2xLntPUADawQUwXZtfC-18" target="r2xLntPUADawQUwXZtfC-17">
          <mxGeometry relative="1" as="geometry" />
        </mxCell>
        <mxCell id="r2xLntPUADawQUwXZtfC-18" value="aloja" style="rhombus;whiteSpace=wrap;html=1;fontFamily=Helvetica;fontSize=11;fontColor=default;labelBackgroundColor=default;" vertex="1" parent="1">
          <mxGeometry x="430" y="470" width="80" height="80" as="geometry" />
        </mxCell>
        <mxCell id="r2xLntPUADawQUwXZtfC-21" value="1:N" style="text;html=1;whiteSpace=wrap;strokeColor=none;fillColor=none;align=center;verticalAlign=middle;rounded=0;fontFamily=Helvetica;fontSize=11;fontColor=default;labelBackgroundColor=default;" vertex="1" parent="1">
          <mxGeometry x="370" y="490" width="60" height="30" as="geometry" />
        </mxCell>
        <mxCell id="r2xLntPUADawQUwXZtfC-24" style="edgeStyle=orthogonalEdgeStyle;shape=connector;rounded=0;orthogonalLoop=1;jettySize=auto;html=1;strokeColor=default;align=center;verticalAlign=middle;fontFamily=Helvetica;fontSize=11;fontColor=default;labelBackgroundColor=default;endArrow=none;endFill=0;" edge="1" parent="1" source="r2xLntPUADawQUwXZtfC-22" target="r2xLntPUADawQUwXZtfC-7">
          <mxGeometry relative="1" as="geometry" />
        </mxCell>
        <mxCell id="r2xLntPUADawQUwXZtfC-22" value="estÃ¡" style="rhombus;whiteSpace=wrap;html=1;fontFamily=Helvetica;fontSize=11;fontColor=default;labelBackgroundColor=default;" vertex="1" parent="1">
          <mxGeometry x="370" y="220" width="80" height="80" as="geometry" />
        </mxCell>
        <mxCell id="r2xLntPUADawQUwXZtfC-25" value="N:M" style="text;html=1;whiteSpace=wrap;strokeColor=none;fillColor=none;align=center;verticalAlign=middle;rounded=0;fontFamily=Helvetica;fontSize=11;fontColor=default;labelBackgroundColor=default;" vertex="1" parent="1">
          <mxGeometry x="440" y="245" width="60" height="30" as="geometry" />
        </mxCell>
        <mxCell id="r2xLntPUADawQUwXZtfC-26" value="id_Socio" style="ellipse;whiteSpace=wrap;html=1;fontFamily=Helvetica;fontSize=11;fontColor=default;labelBackgroundColor=default;" vertex="1" parent="1">
          <mxGeometry x="420" y="10" width="120" height="50" as="geometry" />
        </mxCell>
        <mxCell id="r2xLntPUADawQUwXZtfC-28" value="id_Socio" style="ellipse;whiteSpace=wrap;html=1;fontFamily=Helvetica;fontSize=11;fontColor=default;labelBackgroundColor=default;" vertex="1" parent="1">
          <mxGeometry x="10" y="180" width="120" height="50" as="geometry" />
        </mxCell>
        <mxCell id="r2xLntPUADawQUwXZtfC-30" value="id_Clase" style="ellipse;whiteSpace=wrap;html=1;fontFamily=Helvetica;fontSize=11;fontColor=default;labelBackgroundColor=default;" vertex="1" parent="1">
          <mxGeometry x="210" y="490" width="120" height="50" as="geometry" />
        </mxCell>
        <mxCell id="r2xLntPUADawQUwXZtfC-33" value="id_Clase" style="ellipse;whiteSpace=wrap;html=1;fontFamily=Helvetica;fontSize=11;fontColor=default;labelBackgroundColor=default;" vertex="1" parent="1">
          <mxGeometry x="10" y="320" width="120" height="50" as="geometry" />
        </mxCell>
        <mxCell id="r2xLntPUADawQUwXZtfC-35" value="id_Socio" style="ellipse;whiteSpace=wrap;html=1;fontFamily=Helvetica;fontSize=11;fontColor=default;labelBackgroundColor=default;" vertex="1" parent="1">
          <mxGeometry x="280" y="560" width="120" height="50" as="geometry" />
        </mxCell>
        <mxCell id="r2xLntPUADawQUwXZtfC-37" value="id_Clase" style="ellipse;whiteSpace=wrap;html=1;fontFamily=Helvetica;fontSize=11;fontColor=default;labelBackgroundColor=default;" vertex="1" parent="1">
          <mxGeometry x="530" y="90" width="120" height="50" as="geometry" />
        </mxCell>
        <mxCell id="r2xLntPUADawQUwXZtfC-39" value="id_Clase" style="ellipse;whiteSpace=wrap;html=1;fontFamily=Helvetica;fontSize=11;fontColor=default;labelBackgroundColor=default;" vertex="1" parent="1">
          <mxGeometry x="660" y="255" width="120" height="50" as="geometry" />
        </mxCell>
        <mxCell id="r2xLntPUADawQUwXZtfC-41" value="id_Clase" style="ellipse;whiteSpace=wrap;html=1;fontFamily=Helvetica;fontSize=11;fontColor=default;labelBackgroundColor=default;" vertex="1" parent="1">
          <mxGeometry x="670" y="570" width="120" height="50" as="geometry" />
        </mxCell>
      </root>
    </mxGraphModel>
  </diagram>
</mxfile>
